<svg xmlns="http://www.w3.org/2000/svg" version="1.1" xmlns:xlink="http://www.w3.org/1999/xlink" xmlns:svgjs="http://svgjs.dev/svgjs" width="28" height="45"><svg width="28" height="45" viewBox="0 0 28 45" fill="none" xmlns="http://www.w3.org/2000/svg">
<path d="M5.77939 6.86764C7.17912 4.78864 8.00199 3.87198 10.0796 2.24302C12.5196 0.393149 15.1824 -0.349421 17.7862 0.153428C19.4048 0.466025 19.7672 0.631974 21.4825 1.88822C22.9078 3.09615 23.4151 3.96585 24.5264 5.89854C25.0573 6.82174 25.6284 8.44855 25.976 9.57064C27.0375 12.9978 27.1596 16.4568 27.1596 16.4568C27.1596 16.4568 26.6676 13.7221 25.6207 11.3749C24.8327 9.60824 23.6066 8.1682 22.73 7.68111C21.1919 6.82651 19.5641 7.08315 18.6361 7.35905C16.8858 7.87939 15.2996 9.31656 13.9191 11.2991C11.9826 14.0802 10.2842 19.2024 9.87425 21.4887C9.46428 23.7751 9.24224 26.5987 9.21745 28.6628C9.24224 31.0831 9.33814 32.7155 10.0477 35.7587C10.7257 37.8086 11.4351 39.3795 12.6021 40.5679C16.0395 44.0684 19.7741 40.6646 19.7741 40.6646C19.7741 40.6646 16.6545 44.3207 13.8635 44.7937C12.2608 45.0654 10.8046 45.1564 8.59705 44.5099C6.18456 43.4377 5.16019 42.2077 3.70043 40.2165C1.59576 37.3457 0.342528 33.5851 0.10341 29.981C-0.0874302 25.692 -0.0229824 25.1034 0.370895 21.2636C0.764772 17.4237 2.49383 11.7477 5.77939 6.86764Z" fill="#2C2B29"></path>
<path d="M18.438 8.70933C19.5436 8.45637 20.263 8.33335 21.6229 8.92077C23.5249 9.74237 24.4265 11.6772 25.1702 13.611C25.8759 15.4458 26.164 17.7078 26.3419 19.6644C26.6051 22.5605 26.3339 25.5805 25.7874 28.4368C25.1718 31.6544 24.5264 33.6495 22.2628 36.6931C20.5675 38.9727 17.9996 39.5703 17.9996 39.5703C17.9996 39.5703 19.9522 38.1257 20.8954 36.2809C22.5236 33.0963 22.7791 28.8585 22.7791 28.8585C22.7791 28.8585 23.0809 25.3276 22.5544 22.0096C22.2296 19.9633 21.6632 16.6199 19.3244 14.1197C18.4153 13.1479 17.4703 12.9253 16.638 12.863C15.1638 12.7527 13.7698 14.0986 13.7698 14.0986C13.7698 14.0986 14.4888 12.0659 15.8457 10.4961C16.5281 9.70673 17.6243 8.89552 18.438 8.70933Z" fill="#E32024"></path>
</svg><style>@media (prefers-color-scheme: light) { :root { filter: none; } }
@media (prefers-color-scheme: dark) { :root { filter: none; } }
</style></svg>