<svg width="182" height="45" viewBox="0 0 182 45" fill="none" xmlns="http://www.w3.org/2000/svg">
<g clip-path="url(#clip0_1091_2)">
<path d="M172.759 24.7423C173.182 24.5583 173.769 24.2436 174.208 23.8335C174.543 23.4875 174.701 23.1435 174.799 22.8413C174.891 22.3815 174.893 22.2247 174.737 21.7755C174.584 21.4214 174.139 21.0597 173.527 20.7464C172.486 20.3413 171.543 20.4011 170.297 20.3282L169.374 25.2843C170.627 25.2153 171.562 25.1556 172.759 24.7423ZM180.441 23.541C180.239 24.5709 180.057 25.1636 179.358 26.1384C178.659 27.1132 178.112 27.4815 176.935 28.1068C175.758 28.7137 174.331 29.0068 172.694 29.0068H168.611L167.259 35.7107H162.459L166.321 16.3989H173.679C175.261 16.3989 176.89 16.7152 177.828 17.3038C178.785 17.8739 179.972 19.1701 180.303 20.1265C180.635 21.0829 180.662 22.419 180.441 23.541Z" fill="#E32024"/>
<path d="M149.142 35.9045C147.781 35.9045 146.549 35.6654 145.445 35.1872C144.342 34.709 143.555 34.1908 142.819 33.3263C142.084 32.4435 141.629 31.4756 141.354 30.2801C141.078 29.0662 140.886 27.0798 141.162 25.6268C141.457 24.1739 141.851 22.6583 142.605 21.4628C143.36 20.2489 143.979 19.2206 145.064 18.3562C146.149 17.4734 147.018 16.9634 148.306 16.4852C149.612 16.007 151.35 15.9155 152.711 15.9155C154.109 15.9155 155.787 16.2735 156.891 16.7517C157.994 17.2299 158.835 18.0824 159.571 18.9652C160.306 19.8296 160.803 20.8688 161.06 22.0827C161.336 23.2782 161.479 24.7643 161.185 26.2173C160.909 27.6703 160.546 29.1174 159.792 30.3313C159.038 31.5268 158.156 32.6003 157.071 33.4832C155.986 34.3476 154.694 34.8961 153.389 35.3743C152.101 35.8525 150.522 35.9045 149.142 35.9045ZM150.585 32.0319C151.711 31.9688 152.189 31.6745 153.035 31.1779C153.899 30.6813 154.403 29.9732 154.992 29.1088C155.581 28.2443 155.946 27.1366 156.166 26.033C156.387 24.9111 156.368 23.6635 156.11 22.8175C155.871 21.953 155.486 21.2729 154.824 20.7763C154.18 20.2797 153.244 19.9369 152.233 19.9369C151.203 19.9369 150.328 20.1649 149.463 20.6615C148.617 21.1581 148.143 21.8462 147.555 22.7107C146.966 23.5567 146.608 24.7412 146.335 26.1614C146.177 27.5291 146.263 28.5911 146.502 29.4555C146.76 30.32 147.232 30.9594 147.894 31.456C148.556 31.9526 149.573 32.0319 150.585 32.0319Z" fill="#E32024"/>
<path d="M93.8367 16.3989H108.516L107.716 20.4268H102.762L99.7278 35.7107H94.9275L97.9622 20.4268H93.0366L93.8367 16.3989Z" fill="#2C2B29"/>
<path d="M127.066 16.3408H141.745L140.945 20.3687H135.992L132.957 35.6526H128.157L131.191 20.3687H126.266L127.066 16.3408Z" fill="#E32024"/>
<path d="M75.2576 31.3234C76.5803 31.7984 77.7827 31.9453 79.1564 32.0945C80.0411 32.1582 80.6769 32.1814 81.6 32.1488C82.5633 32.0616 83.0273 31.839 83.5607 31.4895C84.1125 31.1217 84.2774 30.7304 84.3437 30.1999C84.3893 29.744 84.309 29.4001 84.0655 29.0871C83.8448 28.8112 83.4321 28.5144 83.1382 28.3568C82.7208 28.1268 82.3881 27.9513 81.6394 27.6406C80.9543 27.3539 80.4764 27.1786 79.7673 26.8755C79.2577 26.637 78.5213 26.2248 78.0321 25.7863C77.2975 25.1277 76.8838 24.4853 76.6263 23.8231C76.411 23.1519 76.2843 23.0632 76.4616 21.7587C76.7007 20.5448 77.1418 19.6174 77.9327 18.7713C78.7235 17.9253 79.6983 17.2907 80.857 16.8677C82.0157 16.4263 83.2848 16.2056 84.6642 16.2056C85.9149 16.2056 86.813 16.2597 87.9036 16.3279C89.1755 16.4338 89.8889 16.5276 91.0657 16.7809L89.6025 20.4892C88.8695 20.3587 88.0461 20.2583 87.2127 20.1478C86.1509 20.0189 85.3012 19.9733 84.5408 19.9997C83.7552 20.0562 83.2204 20.1139 82.8158 20.2611C82.4296 20.4082 82.0893 20.6197 81.795 20.8956C81.5429 21.2624 81.5998 21.2103 81.5024 21.5941C81.5253 22.184 81.6082 22.2679 81.8105 22.5254C82.0682 22.8175 82.2114 22.8977 82.6295 23.1783C83.122 23.4647 83.4886 23.625 84.0807 23.9454C84.8746 24.3066 85.2125 24.4784 85.9857 24.845C86.7398 25.1208 87.4139 25.5305 88.0024 25.9719C88.591 26.3949 89.0232 26.9467 89.2991 27.6272C89.5749 28.2893 89.7012 29.3666 89.4989 30.3782C89.2966 31.4634 89.038 32.28 88.3207 33.1444C87.6218 34.0088 86.612 34.6785 85.4349 35.1934C84.0689 35.6545 83.5673 35.5915 81.3084 35.8305C79.5381 35.8522 79.6685 35.9282 77.4204 35.7545C75.9725 35.5288 75.8016 35.5524 73.9702 34.9285L75.2576 31.3234Z" fill="#2C2B29"/>
<path d="M108.455 31.4586C109.777 31.9336 110.98 32.0805 112.353 32.2297C113.238 32.2934 113.874 32.3166 114.797 32.284C115.76 32.1968 116.224 31.9742 116.758 31.6247C117.309 31.2569 117.474 30.8656 117.541 30.3351C117.586 29.8791 117.506 29.5353 117.263 29.2223C117.042 28.9464 116.629 28.6496 116.335 28.492C115.918 28.262 115.585 28.0864 114.836 27.7758C114.151 27.489 113.673 27.3138 112.964 27.0107C112.455 26.7722 111.718 26.36 111.229 25.9215C110.495 25.2629 110.081 24.6205 109.823 23.9583C109.608 23.2871 109.481 23.1984 109.659 21.8939C109.898 20.68 110.339 19.7525 111.13 18.9065C111.921 18.0605 112.895 17.4259 114.054 17.0029C115.213 16.5615 116.482 16.3408 117.861 16.3408C119.112 16.3408 120.01 16.3949 121.101 16.463C122.373 16.569 123.086 16.6628 124.263 16.9161L122.8 20.6244C122.067 20.4939 121.243 20.3935 120.41 20.283C119.348 20.1541 118.498 20.1085 117.738 20.1349C116.952 20.1914 116.417 20.2491 116.013 20.3963C115.627 20.5434 115.286 20.7549 114.992 21.0308C114.74 21.3975 114.797 21.3455 114.699 21.7292C114.722 22.3191 114.805 22.4031 115.008 22.6606C115.265 22.9527 115.408 23.0329 115.827 23.3135C116.319 23.5999 116.686 23.7602 117.278 24.0806C118.072 24.4418 118.41 24.6136 119.183 24.9801C119.937 25.256 120.611 25.6656 121.199 26.1071C121.788 26.5301 122.22 27.0818 122.496 27.7624C122.772 28.4245 122.898 29.5018 122.696 30.5134C122.494 31.5985 122.235 32.4152 121.518 33.2796C120.819 34.144 119.809 34.8137 118.632 35.3286C117.266 35.7897 116.764 35.7267 114.505 35.9657C112.735 35.9874 112.865 36.0634 110.617 35.8896C109.17 35.664 108.999 35.6876 107.167 35.0637L108.455 31.4586Z" fill="#E32024"/>
<path d="M68.4748 22.689C68.5668 22.2292 68.5375 21.866 68.351 21.4805C68.036 21.0163 67.6235 20.7555 67.2277 20.6101C66.7673 20.4647 66.0514 20.4268 65.4812 20.4268H63.0675L62.1847 24.9789H65.4677C66.3137 24.9789 66.9851 24.7858 67.4816 24.3995C67.9966 23.9949 68.3277 23.4247 68.4748 22.689ZM67.9782 16.3989C69.56 16.3989 70.8198 16.6932 71.7578 17.2817C72.7142 17.8519 73.358 18.6152 73.689 19.5716C74.0201 20.528 73.8342 22.1342 73.7435 22.5748C73.6528 23.0154 73.4527 23.9266 72.6824 24.697C72.1518 25.2275 71.3451 25.9312 69.4577 26.7997C68.2867 27.3095 67.6054 27.135 65.7853 27.8761V32.1204C65.7853 32.1204 65.6136 29.2797 63.949 29.0068C63.1321 28.9747 61.3846 29.0068 61.3846 29.0068L60.0328 35.7107H55.2324L59.0948 16.3989H67.9782ZM68.438 26.8191C68.438 26.8191 69.8473 28.192 70.5602 30.533C71.2731 32.8739 71.6199 35.7107 71.6199 35.7107H66.3229L65.4677 29.9983L65.2548 27.8761L68.438 26.8191Z" fill="#2C2B29"/>
<path d="M50.1964 16.3989H54.9967L51.1344 35.7107H46.334L50.1964 16.3989Z" fill="#2C2B29"/>
<path d="M33.9541 16.2119H47.2177C47.2177 16.2119 47.2126 17.1006 47.11 17.6325C47.0073 18.1645 46.8365 18.7336 46.4226 19.1536C46.0088 19.5737 45.5752 19.7737 45.1273 19.8495C44.6795 19.9253 44.0344 19.9258 44.0344 19.9258H38.1984L37.1373 24.1701H45.0955L44.0344 27.8839H36.6068L35.0151 35.8421H29.7097L33.9541 16.2119Z" fill="#2C2B29"/>
<path d="M27.0606 37.5337H181.449L180.916 39.2034H26.5271L27.0606 37.5337Z" fill="#E32024"/>
<path d="M5.77939 6.86764C7.17912 4.78864 8.00199 3.87198 10.0796 2.24302C12.5196 0.393149 15.1824 -0.349421 17.7862 0.153428C19.4048 0.466025 19.7672 0.631974 21.4825 1.88822C22.9078 3.09615 23.4151 3.96585 24.5264 5.89854C25.0573 6.82174 25.6284 8.44855 25.976 9.57064C27.0375 12.9978 27.1596 16.4568 27.1596 16.4568C27.1596 16.4568 26.6676 13.7221 25.6207 11.3749C24.8327 9.60824 23.6066 8.1682 22.73 7.68111C21.1919 6.82651 19.5641 7.08315 18.6361 7.35905C16.8858 7.87939 15.2996 9.31656 13.9191 11.2991C11.9826 14.0802 10.2842 19.2024 9.87425 21.4887C9.46428 23.7751 9.24224 26.5987 9.21745 28.6628C9.24224 31.0831 9.33814 32.7155 10.0477 35.7587C10.7257 37.8086 11.4351 39.3795 12.6021 40.5679C16.0395 44.0684 19.7741 40.6646 19.7741 40.6646C19.7741 40.6646 16.6545 44.3207 13.8635 44.7937C12.2608 45.0654 10.8046 45.1564 8.59705 44.5099C6.18456 43.4377 5.16019 42.2077 3.70043 40.2165C1.59576 37.3457 0.342528 33.5851 0.10341 29.981C-0.0874302 25.692 -0.0229824 25.1034 0.370895 21.2636C0.764772 17.4237 2.49383 11.7477 5.77939 6.86764Z" fill="#2C2B29"/>
<path d="M18.438 8.70933C19.5436 8.45637 20.263 8.33335 21.6229 8.92077C23.5249 9.74237 24.4265 11.6772 25.1702 13.611C25.8759 15.4458 26.164 17.7078 26.3419 19.6644C26.6051 22.5605 26.3339 25.5805 25.7874 28.4368C25.1718 31.6544 24.5264 33.6495 22.2628 36.6931C20.5675 38.9727 17.9996 39.5703 17.9996 39.5703C17.9996 39.5703 19.9522 38.1257 20.8954 36.2809C22.5236 33.0963 22.7791 28.8585 22.7791 28.8585C22.7791 28.8585 23.0809 25.3276 22.5544 22.0096C22.2296 19.9633 21.6632 16.6199 19.3244 14.1197C18.4153 13.1479 17.4703 12.9253 16.638 12.863C15.1638 12.7527 13.7698 14.0986 13.7698 14.0986C13.7698 14.0986 14.4888 12.0659 15.8457 10.4961C16.5281 9.70673 17.6243 8.89552 18.438 8.70933Z" fill="#E32024"/>
</g>
<defs>
<clipPath id="clip0_1091_2">
<rect width="182" height="45" fill="white"/>
</clipPath>
</defs>
</svg>
